# xmcd
#
# Track frame offsets: 
#        150
#        15891
#        33561
#        43856
#        63062
#        77794
#        93064
#        109280
#        124887
#
# Disc length: 1821 seconds
#
# Revision: 1
# Processed by: cddbd v1.5.2PL0 Copyright (c) Steve Scherf et al.
# Submitted via: ExactAudioCopy v0.99pb5
#
DISCID=67071b09
DTITLE=Direct Latin Influence - DLI
DYEAR=2001
DGENRE=Salsa
TTITLE0=Guantanamera
TTITLE1=Capullito de Aleli
TTITLE2=Compadre Pedro Juan
TTITLE3=Cachita
TTITLE4=Dulce con Dulce
TTITLE5=Olvido
TTITLE6=La Murga
TTITLE7=El Manisero
TTITLE8=Manteca
EXTD=YEAR: 2001
EXTT0=
EXTT1=
EXTT2=
EXTT3=
EXTT4=
EXTT5=
EXTT6=
EXTT7=
EXTT8=
PLAYORDER=
